<?xml version="1.0" encoding="UTF-8"?>
<!DOCTYPE svg PUBLIC "-//W3C//DTD SVG 1.0//EN" "http://www.w3.org/TR/2001/REC-SVG-20010904/DTD/svg10.dtd">
<!-- Creator: CorelDRAW -->
<svg xmlns="http://www.w3.org/2000/svg" xml:space="preserve" width="113px" height="113px" version="1.0" style="shape-rendering:geometricPrecision; text-rendering:geometricPrecision; image-rendering:optimizeQuality; fill-rule:evenodd; clip-rule:evenodd"
viewBox="0 0 40.42 40.42"
 xmlns:xlink="http://www.w3.org/1999/xlink"
 xmlns:xodm="http://www.corel.com/coreldraw/odm/2003">
 <defs>
  <style type="text/css">
   <![CDATA[
    .fil0 {fill:#3786ED;fill-rule:nonzero}
    .fil1 {fill:white;fill-rule:nonzero}
   ]]>
  </style>
 </defs>
 <g id="Layer_x0020_1">
  <metadata id="CorelCorpID_0Corel-Layer"/>
  <path class="fil0" d="M2.25 0l35.93 0c1.24,0 2.24,1.01 2.24,2.25l0 35.93c0,1.23 -1,2.24 -2.24,2.24l-35.93 0c-1.24,0 -2.25,-1.01 -2.25,-2.25l0 -35.92c0,-1.24 1.01,-2.25 2.25,-2.25z"/>
  <path class="fil1" d="M8.98 11.42c0.44,2.59 0.92,5.27 0.76,7.98 -0.16,2.56 -1.49,4.88 -1.67,7.07l16.83 0c0.28,-0.86 0.85,-1.62 1.49,-2.21 0.22,-0.21 0.45,-0.4 0.67,-0.56 -1.83,-0.51 -3.24,-1.26 -4.34,-2.17l-3.14 0 0 -0.95 2.16 0c-0.45,-0.5 -0.83,-1.03 -1.15,-1.58l-2.91 0 0 -0.95 2.43 0c-0.25,-0.52 -0.45,-1.04 -0.62,-1.58l-2.65 0 0 -0.94 2.36 0c-0.15,-0.54 -0.28,-1.07 -0.4,-1.58l-2.8 0 0 -0.95 2.58 0c-0.13,-0.55 -0.26,-1.08 -0.41,-1.58l-9.19 0zm4.49 6.63c1.66,0 3,1.35 3,3 0,1.66 -1.34,3 -3,3 -1.65,0 -3,-1.34 -3,-3 0,-1.65 1.35,-3 3,-3zm0 0.95c-1.13,0 -2.05,0.92 -2.05,2.05 0,1.14 0.92,2.06 2.05,2.06 1.14,0 2.06,-0.92 2.06,-2.06 0,-1.13 -0.92,-2.05 -2.06,-2.05zm15.14 5.05c-0.26,0.02 -0.98,0.35 -1.58,0.9 -0.46,0.42 -0.87,0.97 -1.11,1.52l4.4 0c0.6,0 1.34,-0.3 2.03,-0.64 -0.02,-0.22 -0.05,-0.41 -0.12,-0.53 -0.08,-0.17 -0.2,-0.3 -0.46,-0.44 -0.5,-0.27 -1.52,-0.5 -3.16,-0.81zm3.76 2.79c-0.11,0.04 -0.18,0.08 -0.3,0.13 -0.54,0.21 -1.17,0.45 -1.75,0.45l-22.27 0 0 1.58 21.42 0c1.17,0 2.39,-0.46 2.9,-0.67l0 -1.49z"/>
 </g>
</svg>
