<?xml version="1.0" encoding="UTF-8"?>
<!DOCTYPE svg PUBLIC "-//W3C//DTD SVG 1.0//EN" "http://www.w3.org/TR/2001/REC-SVG-20010904/DTD/svg10.dtd">
<!-- Creator: CorelDRAW -->
<svg xmlns="http://www.w3.org/2000/svg" xml:space="preserve" width="113px" height="113px" version="1.0" style="shape-rendering:geometricPrecision; text-rendering:geometricPrecision; image-rendering:optimizeQuality; fill-rule:evenodd; clip-rule:evenodd"
viewBox="0 0 5.64 5.64"
 xmlns:xlink="http://www.w3.org/1999/xlink"
 xmlns:xodm="http://www.corel.com/coreldraw/odm/2003">
 <defs>
  <style type="text/css">
   <![CDATA[
    .fil0 {fill:#3786ED;fill-rule:nonzero}
    .fil1 {fill:white;fill-rule:nonzero}
   ]]>
  </style>
 </defs>
 <g id="Layer_x0020_1">
  <metadata id="CorelCorpID_0Corel-Layer"/>
  <path class="fil0" d="M0 0.31c0,-0.17 0.14,-0.31 0.31,-0.31l5.02 0c0.17,0 0.31,0.14 0.31,0.31l0 5.02c0,0.17 -0.14,0.31 -0.31,0.31l-5.02 0c-0.17,0 -0.31,-0.14 -0.31,-0.31l0 -5.02z"/>
  <path class="fil1" d="M1.88 2.02l-0.33 -0.33 0.22 -0.22 0.33 0.33 -0.22 0.22zm1.1 -0.92l0 0.47 -0.31 0 0 -0.47 0.31 0zm1.12 0.59l-0.34 0.33 -0.22 -0.22 0.34 -0.33 0.22 0.22zm-2.45 0.9l0 0.31 -0.47 0 0 -0.31 0.47 0zm2.35 0l0.47 0 0 0.31 -0.47 0 0 -0.31zm-2.12 1.49l1.88 0c0.09,0 0.17,0.03 0.22,0.09 0.06,0.06 0.1,0.14 0.1,0.22l-2.51 0c0,-0.08 0.03,-0.16 0.09,-0.22 0.06,-0.06 0.14,-0.09 0.22,-0.09zm0.94 -2.36c0.25,0 0.49,0.1 0.67,0.28 0.17,0.18 0.27,0.42 0.27,0.67l0 1.25 -1.88 0 0 -1.25c0,-0.25 0.1,-0.49 0.28,-0.67 0.17,-0.18 0.41,-0.28 0.66,-0.28z"/>
 </g>
</svg>
