<svg width="18" height="18" viewBox="0 0 18 18" fill="none" xmlns="http://www.w3.org/2000/svg">
<path d="M8.175 4.52085C8.17761 4.99932 8.08114 5.47315 7.89167 5.91252C7.62114 6.57536 7.15997 7.14301 6.56657 7.54355C5.97318 7.94409 5.27426 8.15951 4.55833 8.16252C3.83809 8.1625 3.13403 7.94891 2.53518 7.54875C1.93633 7.1486 1.46958 6.57986 1.19396 5.91444C0.918341 5.24903 0.846224 4.51682 0.98673 3.81042C1.12724 3.10402 1.47406 2.45515 1.98333 1.94585C2.32165 1.60645 2.72362 1.33717 3.1662 1.15343C3.60879 0.969686 4.08329 0.875104 4.5625 0.875104C5.04171 0.875104 5.51621 0.969686 5.9588 1.15343C6.40139 1.33717 6.80336 1.60645 7.14167 1.94585C7.81704 2.63381 8.19939 3.55682 8.20833 4.52085H8.175ZM17.1333 4.52085C17.1347 4.99837 17.0412 5.47139 16.8583 5.91252C16.6582 6.35631 16.3754 6.75791 16.025 7.09585C15.3406 7.77927 14.413 8.16314 13.4458 8.16314C12.4787 8.16314 11.551 7.77927 10.8667 7.09585C10.1838 6.41291 9.8001 5.48666 9.8001 4.52085C9.8001 3.55504 10.1838 2.62879 10.8667 1.94585C11.2036 1.60544 11.6046 1.33517 12.0466 1.15066C12.4886 0.966143 12.9627 0.871042 13.4417 0.87085C14.411 0.873616 15.3398 1.26012 16.025 1.94585C16.3715 2.27993 16.648 2.6797 16.8383 3.12182C17.0286 3.56394 17.1289 4.03954 17.1333 4.52085ZM8.175 13.4792C8.17351 13.9616 8.07133 14.4385 7.875 14.8792C7.6966 15.3225 7.43012 15.7251 7.09167 16.0625C6.75308 16.4024 6.35039 16.6717 5.90693 16.8548C5.46348 17.0379 4.9881 17.1312 4.50833 17.1292C3.78809 17.1292 3.08403 16.9156 2.48518 16.5154C1.88633 16.1153 1.41958 15.5465 1.14396 14.8811C0.868341 14.2157 0.796224 13.4835 0.93673 12.7771C1.07724 12.0707 1.42406 11.4218 1.93333 10.9125C2.2717 10.5732 2.67369 10.304 3.11627 10.1203C3.55885 9.93666 4.03332 9.84212 4.5125 9.84212C4.99168 9.84212 5.46615 9.93666 5.90873 10.1203C6.35131 10.304 6.7533 10.5732 7.09167 10.9125C7.76704 11.6005 8.14939 12.5235 8.15833 13.4875L8.175 13.4792ZM17.1333 13.4792C17.1317 14.1987 16.9169 14.9017 16.5161 15.4992C16.1153 16.0968 15.5465 16.5623 14.8814 16.8369C14.2163 17.1115 13.4848 17.1829 12.7792 17.0421C12.0735 16.9013 11.4254 16.5547 10.9166 16.0459C10.4078 15.5371 10.0612 14.889 9.92039 14.1833C9.77961 13.4777 9.85103 12.7462 10.1256 12.0811C10.4002 11.416 10.8657 10.8472 11.4633 10.4464C12.0609 10.0456 12.7638 9.83083 13.4833 9.82918C14.4523 9.83376 15.3805 10.22 16.0667 10.9042C16.4056 11.2418 16.6743 11.6431 16.8574 12.0851C17.0404 12.527 17.1342 13.0008 17.1333 13.4792Z" fill="black"/>
</svg>
