<svg width="15" height="19" viewBox="0 0 15 19" fill="none" xmlns="http://www.w3.org/2000/svg">
<path d="M3.66666 0.666626C3.88768 0.666626 4.09964 0.754423 4.25592 0.910704C4.4122 1.06698 4.5 1.27895 4.5 1.49996V3.16663C5.16304 3.16663 5.79892 3.43002 6.26776 3.89886C6.7366 4.3677 7 5.00358 7 5.66663V10.6666C7 11.3297 6.7366 11.9656 6.26776 12.4344C5.79892 12.9032 5.16304 13.1666 4.5 13.1666V16.5C4.5 16.721 4.4122 16.9329 4.25592 17.0892C4.09964 17.2455 3.88768 17.3333 3.66666 17.3333C3.44565 17.3333 3.23369 17.2455 3.07741 17.0892C2.92113 16.9329 2.83333 16.721 2.83333 16.5V13.1666C2.17029 13.1666 1.5344 12.9032 1.06556 12.4344C0.59672 11.9656 0.333328 11.3297 0.333328 10.6666V5.66663C0.333328 5.00358 0.59672 4.3677 1.06556 3.89886C1.5344 3.43002 2.17029 3.16663 2.83333 3.16663V1.49996C2.83333 1.27895 2.92113 1.06698 3.07741 0.910704C3.23369 0.754423 3.44565 0.666626 3.66666 0.666626ZM11.1667 0.666626C11.3708 0.666653 11.5678 0.741589 11.7203 0.877222C11.8728 1.01285 11.9703 1.19975 11.9942 1.40246L12 1.49996V4.83329C12.6377 4.83326 13.2513 5.0769 13.7152 5.51436C14.1792 5.95183 14.4584 6.55005 14.4958 7.18663L14.5 7.33329V12.3333C14.5 12.971 14.2564 13.5846 13.8189 14.0485C13.3815 14.5125 12.7832 14.7917 12.1467 14.8291L12 14.8333V16.5C11.9998 16.7124 11.9184 16.9167 11.7726 17.0711C11.6268 17.2255 11.4275 17.3185 11.2155 17.3309C11.0035 17.3434 10.7947 17.2744 10.6318 17.1381C10.4689 17.0017 10.3642 16.8084 10.3392 16.5975L10.3333 16.5V14.8333C9.69565 14.8333 9.08207 14.5897 8.61811 14.1522C8.15416 13.7148 7.87491 13.1165 7.8375 12.48L7.83333 12.3333V7.33329C7.83329 6.69562 8.07693 6.08203 8.5144 5.61807C8.95186 5.15412 9.55009 4.87487 10.1867 4.83746L10.3333 4.83329V1.49996C10.3333 1.27895 10.4211 1.06698 10.5774 0.910704C10.7337 0.754423 10.9456 0.666626 11.1667 0.666626Z" fill="black"/>
</svg>
