<svg width="16" height="16" viewBox="0 0 16 16" fill="none" xmlns="http://www.w3.org/2000/svg">
<path d="M8 15.5C6.08333 15.5 4.41333 14.8647 2.99 13.5942C1.56667 12.3236 0.750556 10.7367 0.541667 8.83333H2.25C2.44444 10.2778 3.08694 11.4722 4.1775 12.4167C5.26806 13.3611 6.54222 13.8333 8 13.8333C9.625 13.8333 11.0036 13.2675 12.1358 12.1358C13.2681 11.0042 13.8339 9.62556 13.8333 8C13.8328 6.37444 13.2669 4.99611 12.1358 3.865C11.0047 2.73389 9.62611 2.16778 8 2.16667C7.04167 2.16667 6.14583 2.38889 5.3125 2.83333C4.47917 3.27778 3.77778 3.88889 3.20833 4.66667H5.5V6.33333H0.5V1.33333H2.16667V3.29167C2.875 2.40278 3.73972 1.71528 4.76083 1.22917C5.78194 0.743056 6.86167 0.5 8 0.5C9.04167 0.5 10.0175 0.698056 10.9275 1.09417C11.8375 1.49028 12.6292 2.02472 13.3025 2.6975C13.9758 3.37028 14.5106 4.16194 14.9067 5.0725C15.3028 5.98306 15.5006 6.95889 15.5 8C15.4994 9.04111 15.3017 10.0169 14.9067 10.9275C14.5117 11.8381 13.9769 12.6297 13.3025 13.3025C12.6281 13.9753 11.8364 14.51 10.9275 14.9067C10.0186 15.3033 9.04278 15.5011 8 15.5ZM10.3333 11.5L7.16667 8.33333V3.83333H8.83333V7.66667L11.5 10.3333L10.3333 11.5Z" fill="black"/>
</svg>
