<svg width="15" height="16" viewBox="0 0 15 16" fill="none" xmlns="http://www.w3.org/2000/svg">
<path d="M2.00001 15.2183C1.44445 15.2183 1.00278 15.0022 0.675005 14.57C0.347783 14.1378 0.251116 13.6595 0.385005 13.135L1.96501 7.19585C1.51723 7.04307 1.13334 6.7514 0.813339 6.32085C0.493339 5.89029 0.333338 5.39446 0.333338 4.83335C0.333338 4.14112 0.576949 3.5514 1.06417 3.06418C1.55139 2.57696 2.14112 2.33335 2.83334 2.33335H8.66667C9.17389 2.33335 9.55528 2.5464 9.81084 2.97251C10.0664 3.39918 10.082 3.83668 9.85751 4.28501L8.70334 6.59335C8.58278 6.81724 8.41806 6.99668 8.20917 7.13168C8.00028 7.26668 7.76806 7.3339 7.51251 7.33335H5.37667L5.06751 8.50335H5.12501C5.30778 8.51446 5.46306 8.58362 5.59084 8.71085C5.71862 8.83807 5.78251 8.99335 5.78251 9.17668V10.33C5.78251 10.5233 5.71862 10.6839 5.59084 10.8117C5.46306 10.9395 5.30251 11.0033 5.10917 11.0033H4.40084L3.61501 14.01C3.51612 14.37 3.31639 14.6614 3.01584 14.8842C2.71528 15.107 2.37667 15.2178 2.00001 15.2167M11.9833 2.87918L11.6558 2.15418L14.26 0.97168L14.5833 1.70085L11.9833 2.87918ZM14.26 8.69585L11.6558 7.53418L11.9842 6.80501L14.5833 7.98835L14.26 8.69585ZM12.0958 5.23501V4.43335H14.9808V5.23501H12.0958Z" fill="black"/>
</svg>
