<?xml version="1.0" encoding="UTF-8"?>
<!DOCTYPE svg PUBLIC "-//W3C//DTD SVG 1.0//EN" "http://www.w3.org/TR/2001/REC-SVG-20010904/DTD/svg10.dtd">
<!-- Creator: CorelDRAW -->
<svg xmlns="http://www.w3.org/2000/svg" xml:space="preserve" width="113px" height="113px" version="1.0" style="shape-rendering:geometricPrecision; text-rendering:geometricPrecision; image-rendering:optimizeQuality; fill-rule:evenodd; clip-rule:evenodd"
viewBox="0 0 29.81 29.81"
 xmlns:xlink="http://www.w3.org/1999/xlink"
 xmlns:xodm="http://www.corel.com/coreldraw/odm/2003">
 <defs>
  <style type="text/css">
   <![CDATA[
    .fil0 {fill:#3786ED;fill-rule:nonzero}
    .fil1 {fill:white;fill-rule:nonzero}
   ]]>
  </style>
 </defs>
 <g id="Layer_x0020_1">
  <metadata id="CorelCorpID_0Corel-Layer"/>
  <path class="fil0" d="M1.66 0l26.49 0c0.91,0 1.66,0.74 1.66,1.66l0 26.49c0,0.91 -0.75,1.66 -1.66,1.66l-26.49 0c-0.92,0 -1.66,-0.75 -1.66,-1.66l0 -26.49c0,-0.92 0.74,-1.66 1.66,-1.66z"/>
  <g>
   <path class="fil1" d="M9.98 8.06l8.21 3.52 -3.29 1.4 -8.16 -3.49c0.18,-0.19 0.41,-0.34 0.66,-0.44l2.58 -0.99zm1.66 -0.64l1.93 -0.74c0.86,-0.33 1.81,-0.33 2.67,0l6.16 2.37c0.26,0.1 0.48,0.25 0.67,0.44l-3.3 1.41 -8.13 -3.48zm11.95 3.19l-8.07 3.46 0 9.25c0.25,-0.04 0.49,-0.1 0.72,-0.19l6.16 -2.37c0.35,-0.14 0.66,-0.38 0.87,-0.69 0.21,-0.31 0.33,-0.68 0.33,-1.05l0 -8.23c0,-0.06 -0.01,-0.12 -0.01,-0.18l0 0zm-9.31 12.71l0 -9.25 -8.06 -3.46c-0.01,0.06 -0.01,0.12 -0.01,0.18l0 8.23c0,0.37 0.11,0.74 0.33,1.05 0.21,0.31 0.51,0.55 0.86,0.69l6.17 2.37c0.23,0.09 0.47,0.15 0.71,0.19z"/>
  </g>
 </g>
</svg>
