<?xml version="1.0" encoding="UTF-8"?>
<svg version="1.1" xmlns="http://www.w3.org/2000/svg" width="256" height="256">
<path d="M0 0 C4.1151945 2.08247321 6.40087455 4.44988752 8.06413841 8.75323677 C8.98928655 11.96283207 9.25988689 14.5197539 9.2784729 17.84664917 C9.28963638 18.99080795 9.30079987 20.13496674 9.31230164 21.313797 C9.31446182 22.55457504 9.31662201 23.79535309 9.31884766 25.07373047 C9.32889328 26.39133865 9.3389389 27.70894684 9.34928894 29.06648254 C9.37652087 32.66723981 9.39171805 36.2679581 9.40471697 39.8687911 C9.4203774 43.63645984 9.4471583 47.40404935 9.4727478 51.17166138 C9.51948412 58.3006659 9.55625308 65.42968542 9.58942068 72.55876458 C9.62767849 80.67729888 9.67707904 88.7957535 9.72740483 96.91422057 C9.8306481 113.6094231 9.91993316 130.30466989 10 147 C11.3003418 145.6682373 11.3003418 145.6682373 12.62695312 144.30957031 C15.86689171 140.99685856 19.12035626 137.69770805 22.37792969 134.40234375 C23.78200753 132.97823534 25.182464 131.55054653 26.57910156 130.11914062 C28.59523387 128.05411495 30.62433519 126.00260914 32.65625 123.953125 C33.2711731 123.31755676 33.88609619 122.68198853 34.51965332 122.02716064 C39.06079029 117.4837371 43.99644614 113.6120878 50.50390625 112.6171875 C55.50391204 113.24337418 58.96133751 114.58358196 62.6171875 118.12890625 C65.06148716 121.43630607 66.00654404 124.90997448 66 129 C64.79302869 135.13465243 62.51957005 138.21282223 58.22436523 142.4543457 C57.63380844 143.05687668 57.04325165 143.65940765 56.43479919 144.28019714 C54.48870183 146.25836368 52.52478066 148.21759572 50.55859375 150.17578125 C49.19237096 151.5504579 47.8267437 152.92572666 46.46168518 154.30155945 C43.6009163 157.17870208 40.7308151 160.04612642 37.85424805 162.9074707 C34.17752425 166.56691523 30.52872418 170.25285171 26.88694668 173.94703388 C24.07412232 176.79301177 21.24515024 179.62249995 18.41130257 182.44753075 C17.05954773 183.79964449 15.71321777 185.1572052 14.3725872 186.5203495 C12.4918991 188.42839874 10.59006631 190.31262296 8.68139648 192.19262695 C8.13715027 192.75418488 7.59290405 193.3157428 7.03216553 193.89431763 C2.84828616 197.94548372 -1.1573271 199.65389724 -7 200 C-13.11355185 199.13952452 -16.27875481 196.45677589 -20.4543457 192.24023438 C-21.05687668 191.65128387 -21.65940765 191.06233337 -22.28019714 190.45553589 C-24.25848949 188.5143919 -26.21775245 186.55531759 -28.17578125 184.59375 C-29.55053137 183.22999587 -30.92579898 181.86676321 -32.30155945 180.50402832 C-35.17885334 177.64761557 -38.04617424 174.78161327 -40.9074707 171.90917969 C-44.56524857 168.23971823 -48.25174926 164.60071562 -51.94703388 160.96907806 C-54.79466289 158.16214511 -57.62356551 155.33690088 -60.44753075 152.50617981 C-61.798764 151.15714527 -63.15631346 149.81440526 -64.5203495 148.47831726 C-77.35269255 135.87903284 -77.35269255 135.87903284 -78.13517761 128.05114746 C-77.79385614 122.87203043 -75.79571516 119.87149755 -72.375 116.125 C-68.28884503 113.55223576 -64.83376345 112.33814624 -60 113 C-53.67620044 115.41536553 -49.30986409 119.14327264 -44.65625 123.953125 C-44.00168823 124.61334656 -43.34712646 125.27356812 -42.67272949 125.95379639 C-40.6054832 128.04324785 -38.55266647 130.1462338 -36.5 132.25 C-35.09208021 133.67800517 -33.68323449 135.10509806 -32.2734375 136.53125 C-28.8381649 140.01037934 -25.4157536 143.5017096 -22 147 C-21.99761165 146.31069869 -21.99522329 145.62139738 -21.99276257 144.91120815 C-21.93358487 128.12644607 -21.85801713 111.34184554 -21.76428509 94.55724239 C-21.71935045 86.44027443 -21.67993043 78.3233501 -21.65356445 70.20629883 C-21.63056545 63.13013929 -21.59714624 56.05411815 -21.55129844 48.97806841 C-21.52739175 45.23254483 -21.5086463 41.48715808 -21.50238609 37.74155998 C-21.49519607 33.55659386 -21.4647391 29.37210303 -21.43237305 25.18725586 C-21.43380814 23.95007309 -21.43524323 22.71289032 -21.4367218 21.43821716 C-21.34981544 13.49811688 -20.75352916 8.31835565 -15.5625 2.0625 C-11.01263473 -1.34989895 -5.36142522 -1.01199593 0 0 Z " fill="#000000" transform="translate(134,0)"/>
<path d="M0 0 C4.00662352 2.77381629 5.72285805 4.66857415 7.25 9.25 C7.35239552 10.9054236 7.40477668 12.56420187 7.42578125 14.22265625 C7.44962891 15.20556641 7.47347656 16.18847656 7.49804688 17.20117188 C7.54044503 19.24784631 7.5719998 21.29477907 7.59179688 23.34179688 C7.85189265 32.65080627 10.07851468 40.82878229 16.5390625 47.78125 C22.39829221 52.81109103 28.88180605 54.36794223 36.43423462 54.39717102 C38.33923233 54.40790398 38.33923233 54.40790398 40.28271484 54.41885376 C41.68798804 54.42169386 43.09326149 54.42440561 44.49853516 54.42700195 C45.9804195 54.43326945 47.46230228 54.43991651 48.94418335 54.44691467 C53.809132 54.46792725 58.67408085 54.47831594 63.5390625 54.48828125 C65.21663809 54.49233016 66.89421353 54.49644712 68.57178879 54.50063133 C76.45589127 54.51967858 84.33998442 54.53390935 92.22410548 54.5422433 C101.31041686 54.55200772 110.39648412 54.5783083 119.48270953 54.61874419 C126.51473746 54.64895905 133.54669564 54.66371734 140.57878721 54.66702431 C144.77436182 54.6693691 148.96967551 54.67825438 153.16518021 54.70348549 C157.11660574 54.72686488 161.06760037 54.7309602 165.0190773 54.72072411 C166.46297138 54.72023099 167.90688738 54.72648494 169.35071564 54.74028015 C180.25439888 54.83856372 189.53696403 53.62190135 197.78125 45.9609375 C202.50042471 40.46360101 204.32264528 34.16047753 204.4609375 27.0390625 C204.48929688 26.04132813 204.51765625 25.04359375 204.546875 24.015625 C204.59875963 21.92986299 204.6430895 19.84389873 204.6796875 17.7578125 C204.85083024 12.2241972 205.07731016 7.99370776 208.25 3.25 C211.9299016 -0.15390898 214.51528618 -1.6190782 219.5625 -2 C224.8991619 -1.63819241 227.81072827 0.06584291 231.89453125 3.42578125 C235.72547081 8.17499846 234.95277424 14.44006377 234.84692383 20.2331543 C234.81297472 22.28382468 234.82618603 24.33008233 234.84570312 26.38085938 C234.82735741 43.36706509 229.22214891 56.63128166 217.65625 68.9296875 C207.92399461 78.31436234 195.23508183 84.3482659 181.63038635 84.39717102 C180.96643842 84.40084771 180.30249049 84.4045244 179.61842293 84.4083125 C177.39477732 84.41932058 175.1711785 84.42318836 172.94750977 84.42700195 C171.35226799 84.43326905 169.75702767 84.43991607 168.16178894 84.44691467 C162.92167168 84.46793777 157.6815542 84.47831916 152.44140625 84.48828125 C150.63388491 84.49233022 148.82636373 84.49644719 147.0188427 84.50063133 C138.52124137 84.51968345 130.0236487 84.53391138 121.52603012 84.5422433 C111.73850018 84.55199971 101.95119736 84.57827731 92.16374737 84.61874419 C84.58645429 84.64898999 77.00922597 84.66372039 69.43187374 84.66702431 C64.91260026 84.66936622 60.39356939 84.67821318 55.87436104 84.70348549 C51.61514448 84.72691816 47.3563276 84.73093904 43.09706306 84.72072411 C41.54316369 84.72023221 39.98924363 84.72644902 38.43540573 84.74028015 C20.46878949 84.891112 6.70524863 80.00885451 -6.4296875 67.65625 C-18.10167701 55.55196459 -21.96969783 41.44036092 -22.1550293 25.08813477 C-22.17659905 23.65950329 -22.21069163 22.23100363 -22.25756836 20.80297852 C-22.69226318 7.41097462 -22.69226318 7.41097462 -18.875 2.859375 C-13.45097823 -2.22148077 -6.72361671 -3.60295073 0 0 Z " fill="#000000" transform="translate(21.75,171.75)"/>
</svg>
