<svg width="18" height="19" viewBox="0 0 18 19" fill="none" xmlns="http://www.w3.org/2000/svg">
<path d="M4 5.75004L2.225 3.98337L3.4 2.80837L5.16667 4.58337L4 5.75004ZM9.83333 0.833374V3.33337H8.16667V0.833374H9.83333ZM15.775 3.98337L14 5.75004L12.8333 4.58337L14.6 2.80837L15.775 3.98337ZM2.75 8.75004V10.4167H0.25V8.75004H2.75ZM15.25 8.75004H17.75V10.4167H15.25V8.75004ZM4 16.6667H14C14.442 16.6667 14.866 16.8423 15.1785 17.1549C15.4911 17.4674 15.6667 17.8913 15.6667 18.3334H2.33333C2.33333 17.8913 2.50893 17.4674 2.82149 17.1549C3.13405 16.8423 3.55797 16.6667 4 16.6667ZM9 4.16671C10.3261 4.16671 11.5979 4.69349 12.5355 5.63117C13.4732 6.56886 14 7.84062 14 9.16671V15.8334H4V9.16671C4 7.84062 4.52678 6.56886 5.46447 5.63117C6.40215 4.69349 7.67392 4.16671 9 4.16671Z" fill="black"/>
</svg>
